<svg width="280" height="180" viewBox="0 0 338 250" fill="none" xmlns="http://www.w3.org/2000/svg">
<g clip-path="url(#clip0)">
<path d="M142.135 144.375C167.839 144.375 188.677 123.532 188.677 97.8196C188.677 72.1075 167.839 51.2637 142.135 51.2637C116.43 51.2637 95.5918 72.1075 95.5918 97.8196C95.5918 123.532 116.43 144.375 142.135 144.375Z" fill="#6327D8"/>
<path d="M148.221 136.497C122.36 136.497 101.32 115.452 101.32 89.583C101.32 63.7144 122.36 42.6689 148.221 42.6689C174.082 42.6689 195.122 63.7144 195.122 89.583C195.122 115.452 174.082 136.497 148.221 136.497ZM148.221 43.3852C139.087 43.3852 130.157 46.0946 122.562 51.1709C114.967 56.2472 109.047 63.4623 105.552 71.9039C102.056 80.3454 101.142 89.6343 102.924 98.5958C104.706 107.557 109.104 115.789 115.563 122.25C122.022 128.711 130.252 133.111 139.211 134.893C148.17 136.676 157.456 135.761 165.895 132.264C174.334 128.768 181.547 122.846 186.622 115.249C191.697 107.652 194.406 98.72 194.406 89.583C194.392 77.3348 189.522 65.5922 180.863 56.9315C172.205 48.2707 160.466 43.399 148.221 43.3852V43.3852Z" fill="#3F3D56"/>
<path d="M290.355 157.932H0V0H290.355V157.932ZM0.716042 157.216H289.639V0.716244H0.716042V157.216Z" fill="#3F3D56"/>
<path d="M73.3948 12.5342H9.66699V18.9804H73.3948V12.5342Z" fill="#F2F2F2"/>
<path d="M168.987 12.5342H105.259V18.9804H168.987V12.5342Z" fill="#F2F2F2"/>
<path d="M264.577 12.5342H200.85V18.9804H264.577V12.5342Z" fill="#F2F2F2"/>
<path d="M77.6909 16.1156H13.2471V8.95312H77.6909V16.1156ZM13.9631 15.3993H76.9748V9.66937H13.9631V15.3993Z" fill="#3F3D56"/>
<path d="M173.283 16.1156H108.839V8.95312H173.283V16.1156ZM109.555 15.3993H172.567V9.66937H109.555V15.3993Z" fill="#3F3D56"/>
<path d="M268.874 16.1156H204.43V8.95312H268.874V16.1156ZM205.146 15.3993H268.157V9.66937H205.146V15.3993Z" fill="#3F3D56"/>
<path d="M338 244.503H41.7002V245.418H338V244.503Z" fill="#2F2E41"/>
<path d="M140.882 173.152L163.437 129.461L169.524 133.042L143.746 174.942L140.882 173.152Z" fill="#3F3D56"/>
<path d="M127.814 182.643C127.814 182.643 131.971 185.91 132.443 178.919C132.503 177.809 132.794 176.723 133.296 175.731C133.798 174.739 134.501 173.863 135.36 173.157C137.242 171.653 139.951 170.624 143.209 172.615C146.109 174.388 146.761 176.958 146.602 179.25C146.459 180.891 145.921 182.473 145.034 183.861C144.147 185.249 142.936 186.402 141.506 187.219C138.274 189.138 133.172 190.583 127.814 185.866C127.814 185.866 124.592 182.285 127.814 182.643Z" fill="#6327D8"/>
<path d="M167.696 79.1598C172.494 79.1598 176.383 75.269 176.383 70.4695C176.383 65.6701 172.494 61.7793 167.696 61.7793C162.897 61.7793 159.008 65.6701 159.008 70.4695C159.008 75.269 162.897 79.1598 167.696 79.1598Z" fill="#FFB8B8"/>
<path d="M163.124 74.586C163.124 74.586 165.41 86.4779 164.496 88.7648C163.581 91.0517 177.299 87.8501 177.299 87.8501C177.299 87.8501 174.555 75.9581 175.013 73.2139C175.47 70.4696 163.124 74.586 163.124 74.586Z" fill="#FFB8B8"/>
<path d="M148.034 115.75L148.949 128.1L153.487 147.494L154.893 152.799L157.179 144.566L154.893 125.813L154.116 117.37L148.034 115.75Z" fill="#FFB8B8"/>
<path d="M196.046 113.921V126.728C196.046 126.728 194.674 143.193 191.93 147.31C189.187 151.426 188.272 130.844 188.272 130.844L190.422 115.75L196.046 113.921Z" fill="#FFB8B8"/>
<path d="M155.35 153.713C155.35 153.713 153.064 156.457 154.893 184.358C156.722 212.258 153.978 232.383 159.923 232.383C159.923 232.383 158.094 238.329 163.123 238.786C168.153 239.244 170.439 239.701 170.897 238.329C171.354 236.957 172.268 230.553 170.897 230.553C170.897 230.553 170.897 232.383 171.811 225.065C172.726 217.747 172.726 182.986 175.012 178.412L182.328 195.335C182.328 195.335 182.328 203.11 183.7 206.769C185.072 210.428 187.358 231.468 187.358 231.468L186.901 234.67C186.901 234.67 197.875 236.499 198.332 234.67C198.789 232.84 198.789 230.096 198.332 229.181C197.875 228.266 197.875 228.266 198.789 226.437C199.704 224.607 199.704 223.235 199.246 221.863C198.789 220.491 198.789 190.761 198.789 190.761C198.789 190.761 197.875 154.628 192.388 152.798C186.901 150.969 155.35 153.713 155.35 153.713Z" fill="#2F2E41"/>
<path d="M161.295 235.127L157.637 241.53C157.637 241.53 151.921 239.472 153.064 244.732C162.895 245.418 169.754 244.503 169.754 244.503C169.754 244.503 172.04 245.418 172.497 244.046C172.955 242.674 171.354 237.871 169.983 237.871C168.611 237.871 161.295 235.127 161.295 235.127Z" fill="#2F2E41"/>
<path d="M187.815 233.297C187.815 233.297 184.157 241.53 185.528 241.988C186.9 242.445 199.246 244.275 200.161 244.732C201.075 245.189 205.648 245.647 206.105 242.902C206.562 240.158 203.819 239.243 203.819 239.243C203.819 239.243 198.789 238.329 197.417 233.755C196.045 229.181 187.815 233.297 187.815 233.297Z" fill="#2F2E41"/>
<path d="M178.212 86.4778C178.212 86.4778 165.867 84.1909 163.123 86.4778C160.38 88.7647 148.948 93.3386 148.948 95.6255C148.948 97.9124 154.893 120.324 154.893 120.324C154.893 120.324 151.692 154.17 154.893 155.085C158.093 156 163.58 153.256 169.982 156.457C176.383 159.659 194.674 153.713 194.674 153.713C194.674 153.713 187.815 124.441 189.644 118.952C191.473 113.463 192.845 94.7107 192.845 94.7107C192.845 94.7107 185.071 86.4778 178.212 86.4778Z" fill="#8985A8"/>
<path d="M152.149 94.2534L148.949 95.1682C148.949 95.1682 142.09 116.665 144.833 117.58C147.577 118.495 155.35 120.324 156.265 120.324C157.179 120.324 152.149 94.2534 152.149 94.2534Z" fill="#8985A8"/>
<path d="M185.528 91.9668L192.844 94.7111C192.844 94.7111 202.447 112.549 200.16 114.836C197.874 117.123 187.815 119.41 187.815 119.41L185.528 91.9668Z" fill="#8985A8"/>
<path d="M167.432 59.7359C166.709 59.605 165.967 59.6378 165.259 59.8319C164.692 60.0829 164.17 60.4253 163.714 60.8453C162.887 61.5048 162.003 62.0904 161.073 62.5954C160.332 62.9977 159.536 63.3701 159.019 64.0361C158.774 64.3726 158.579 64.7423 158.439 65.1341C157.548 67.4104 157.308 69.8901 157.747 72.2951C157.797 72.6368 157.899 72.9686 158.052 73.2784C158.527 74.1542 159.577 74.4994 160.461 74.9585C162.14 75.8302 163.412 77.298 164.789 78.5952C165.301 79.1059 165.875 79.5489 166.499 79.9135C168.464 80.9848 170.865 80.6353 173.07 80.2565C173.226 80.2562 173.381 80.2249 173.525 80.1646C173.669 80.1042 173.8 80.0159 173.909 79.9047C174.019 79.7936 174.106 79.6618 174.165 79.5169C174.223 79.3721 174.253 79.217 174.251 79.0607L175.992 71.2301C176.307 70.0699 176.458 68.871 176.438 67.6688C176.317 65.7679 175.288 63.1347 173.893 61.7845C172.268 60.2112 169.556 59.9609 167.432 59.7359Z" fill="#2F2E41"/>
<path d="M131.751 244.598C138.672 244.598 144.282 244.277 144.282 243.881C144.282 243.486 138.672 243.165 131.751 243.165C124.831 243.165 119.221 243.486 119.221 243.881C119.221 244.277 124.831 244.598 131.751 244.598Z" fill="#6327D8"/>
<path d="M128.888 246.03C135.809 246.03 141.419 245.709 141.419 245.314C141.419 244.918 135.809 244.598 128.888 244.598C121.968 244.598 116.357 244.918 116.357 245.314C116.357 245.709 121.968 246.03 128.888 246.03Z" fill="#6327D8"/>
<path d="M116.357 241.405C120.114 241.405 123.159 241.231 123.159 241.016C123.159 240.802 120.114 240.627 116.357 240.627C112.6 240.627 109.555 240.802 109.555 241.016C109.555 241.231 112.6 241.405 116.357 241.405Z" fill="#6327D8"/>
<path d="M140.703 250C144.46 250 147.505 249.826 147.505 249.611C147.505 249.396 144.46 249.222 140.703 249.222C136.946 249.222 133.9 249.396 133.9 249.611C133.9 249.826 136.946 250 140.703 250Z" fill="#6327D8"/>
</g>
<defs>
<clipPath id="clip0">
<rect width="338" height="250" fill="white"/>
</clipPath>
</defs>
</svg>
