<svg width="280" height="180" viewBox="0 0 338 250" fill="none" xmlns="http://www.w3.org/2000/svg">
<g clip-path="url(#clip0)">
<path d="M271.435 232.52C269.241 241.325 261.553 246.827 261.553 246.827C261.553 246.827 257.422 238.054 259.616 229.25C261.81 220.445 269.498 214.943 269.498 214.943C269.498 214.943 273.628 223.716 271.435 232.52Z" fill="#3F3D56"/>
<path d="M268.107 230.657C261.962 237.055 261.275 246.822 261.275 246.822C261.275 246.822 270.55 246.216 276.695 239.818C282.84 233.42 283.527 223.653 283.527 223.653C283.527 223.653 274.252 224.26 268.107 230.657Z" fill="#6327D8"/>
<path d="M45.4622 199.214H57.0344L85.5515 187.454C85.5515 187.454 105.803 178.743 104.15 195.294C102.496 211.845 99.6034 234.058 99.6034 234.058C99.6034 234.058 90.511 229.703 85.5515 231.009C80.592 232.316 83.8983 204.44 83.8983 204.44C83.8983 204.44 43.3957 224.911 39.6761 222.298C35.9565 219.685 35.1299 201.392 35.1299 201.392L45.4622 199.214Z" fill="#2F2E41"/>
<path opacity="0.1" d="M45.4622 199.214H57.0344L85.5515 187.454C85.5515 187.454 105.803 178.743 104.15 195.294C102.496 211.845 99.6034 234.058 99.6034 234.058C99.6034 234.058 90.511 229.703 85.5515 231.009C80.592 232.316 83.8983 204.44 83.8983 204.44C83.8983 204.44 43.3957 224.911 39.6761 222.298C35.9565 219.685 35.1299 201.392 35.1299 201.392L45.4622 199.214Z" fill="black"/>
<path d="M63.6944 161.022L77.6992 182.227L110.349 210.974C110.349 210.974 140.52 218.378 136.387 223.605C132.254 228.831 107.043 218.378 107.043 218.378C107.043 218.378 69.4333 189.632 68.1934 187.454C66.9536 185.276 53.3149 164.805 53.3149 164.805L63.6944 161.022Z" fill="#A0616A"/>
<path opacity="0.1" d="M63.6944 161.022L77.6992 182.227L110.349 210.974C110.349 210.974 140.52 218.378 136.387 223.605C132.254 228.831 107.043 218.378 107.043 218.378C107.043 218.378 69.4333 189.632 68.1934 187.454C66.9536 185.276 53.3149 164.805 53.3149 164.805L63.6944 161.022Z" fill="black"/>
<path d="M55.3813 143.899L64.4737 162.628C64.4737 162.628 62.4073 171.775 59.1009 172.646C55.7946 173.517 41.7427 161.322 41.7427 161.322L55.3813 143.899Z" fill="#D0CDE1"/>
<path opacity="0.1" d="M55.3813 143.899L64.4737 162.628C64.4737 162.628 62.4073 171.775 59.1009 172.646C55.7946 173.517 41.7427 161.322 41.7427 161.322L55.3813 143.899Z" fill="black"/>
<path d="M166.305 189.517L168.991 201.193C169.021 201.323 169.016 201.459 168.977 201.587L156.794 241.711C156.746 241.87 156.647 242.006 156.515 242.098C156.383 242.19 156.224 242.231 156.067 242.214C155.909 242.198 155.762 242.125 155.649 242.008C155.536 241.891 155.465 241.737 155.447 241.571L153.762 225.94C153.751 225.836 153.761 225.731 153.791 225.632L164.974 189.463C165.021 189.312 165.113 189.181 165.237 189.09C165.36 189 165.509 188.954 165.659 188.96C165.81 188.966 165.954 189.024 166.071 189.124C166.187 189.225 166.269 189.363 166.305 189.517Z" fill="#2F2E41"/>
<path d="M165.317 190.503L167.796 200.521L157.051 237.107L154.571 225.783L165.317 190.503Z" fill="#F2F2F2"/>
<path d="M111.176 244.947C111.589 246.254 154.158 244.511 154.571 244.076C154.932 243.53 155.236 242.947 155.48 242.334C155.869 241.463 156.224 240.592 156.224 240.592L154.571 226.488L112.415 224.912C112.415 224.912 111.362 236.863 111.147 242.334C111.093 243.714 111.093 244.686 111.176 244.947Z" fill="#2F2E41"/>
<path opacity="0.1" d="M149.198 228.396L150.025 240.592H131.427V228.396H149.198Z" fill="black"/>
<path opacity="0.1" d="M125.228 232.316L125.338 232.293L124.814 237.543H114.482V232.316H125.228Z" fill="black"/>
<path opacity="0.1" d="M111.176 244.947C111.589 246.254 154.158 244.512 154.571 244.076C154.932 243.531 155.236 242.947 155.48 242.334H111.147C111.093 243.715 111.093 244.686 111.176 244.947Z" fill="black"/>
<path d="M61.5805 137.801C71.852 137.801 80.1787 129.026 80.1787 118.201C80.1787 107.377 71.852 98.6016 61.5805 98.6016C51.3091 98.6016 42.9824 107.377 42.9824 118.201C42.9824 129.026 51.3091 137.801 61.5805 137.801Z" fill="#A0616A"/>
<path d="M60.3408 135.623C60.3408 135.623 54.1414 146.948 52.9015 153.045C51.6616 159.143 34.3034 140.85 34.3034 140.85L32.0303 134.534C32.0303 134.534 48.3553 126.477 47.1154 119.943C45.8756 113.41 60.3408 135.623 60.3408 135.623Z" fill="#A0616A"/>
<path d="M63.6466 169.597L80.5916 193.116L121.094 224.912C121.094 224.912 150.438 231.445 143.825 236.236C137.213 241.027 118.201 231.881 118.201 231.881C118.201 231.881 77.2852 208.796 68.6061 199.214C59.927 189.632 43.8086 173.517 43.8086 173.517L63.6466 169.597Z" fill="#A0616A"/>
<path d="M40.9158 206.183L45.8753 214.459L75.4741 204.645C81.9685 202.492 89.09 203.284 94.8504 207.109C100.017 210.539 103.323 215.983 95.8836 224.041C81.0051 240.156 71.0861 231.445 71.0861 231.445C71.0861 231.445 21.0778 256.272 12.8119 244.076C4.54609 231.881 4.13281 225.783 4.13281 225.783C4.13281 225.783 35.9563 204.876 40.9158 206.183Z" fill="#2F2E41"/>
<path d="M102.91 234.929C102.91 234.929 116.135 244.076 100.43 248.431C84.725 252.787 73.1528 246.689 73.1528 246.689C73.1528 246.689 59.5142 246.689 59.5142 239.285C59.5142 231.88 64.0604 231.009 64.0604 231.009L78.1123 233.187C78.1123 233.187 95.0573 228.396 102.91 234.929Z" fill="#D0CDE1"/>
<path d="M76.8372 113.271C78.103 113.866 79.3583 114.569 80.7345 114.742C82.1107 114.915 83.6778 114.408 84.329 113.119C84.6808 112.423 84.721 111.604 84.7374 110.815C84.7872 108.423 84.623 105.838 83.1849 103.987C82.2696 102.809 80.9335 102.066 79.9861 100.917C79.3073 100.093 78.8555 99.0952 78.3691 98.1323C76.5265 94.4853 73.7984 90.9803 70.0069 89.9289C68.4237 89.4899 66.7628 89.5113 65.1259 89.5357L55.5779 89.6776C54.0327 89.7006 52.4638 89.7273 50.9847 90.1986C47.9114 91.1779 45.6738 93.9014 43.6244 96.5061C42.0912 98.4547 40.5539 100.424 39.4033 102.646C37.7535 105.888 36.9193 109.522 36.9802 113.201C36.9674 114.144 37.083 115.085 37.3234 115.994C37.6047 116.827 37.9532 117.634 38.3651 118.405C40.1556 122.112 41.2188 126.741 39.2023 130.316C42.7052 128.808 46.1711 126.831 48.4818 123.673C49.5155 122.261 50.3262 120.607 51.7038 119.57C53.0814 118.534 55.326 118.444 56.2099 119.965C56.5137 120.581 56.6702 121.265 56.6656 121.959C56.7302 123.101 56.7284 124.287 57.1879 125.323C57.6473 126.36 58.7417 127.196 59.7866 126.886C61.586 126.352 61.4137 123.441 62.7997 122.119C63.8522 121.115 65.4761 121.307 66.8283 120.851C68.4038 120.32 69.586 118.882 70.2596 117.29C70.7716 116.079 70.7642 112.912 71.733 112.257C72.948 111.435 75.711 112.742 76.8372 113.271Z" fill="#2F2E41"/>
<path d="M30.5538 132.469C31.3904 132.233 32.2713 132.236 33.1068 132.476C35.7598 133.226 41.7072 135.213 42.9823 138.237C44.6355 142.157 50.4216 148.255 50.4216 148.255C50.4216 148.255 58.2741 156.53 56.621 162.192C54.9678 167.854 48.7684 174.388 48.7684 174.388C48.7684 174.388 50.4216 201.392 42.1558 208.361C33.8899 215.33 30.5836 210.539 30.5836 217.072C30.5836 223.605 4.9595 244.076 0 231.445C0 231.445 2.47975 207.925 1.65317 199.65C0.838505 191.494 2.03113 140.606 30.5538 132.469Z" fill="#D0CDE1"/>
<path d="M43.8089 143.464C43.8089 143.464 69.0197 163.063 64.4735 171.339C64.4735 171.339 49.1817 179.179 45.8754 178.743C42.569 178.308 29.757 163.063 26.4507 161.757C23.1443 160.45 21.4912 136.93 43.8089 143.464Z" fill="#D0CDE1"/>
<path d="M156.446 100.121C167.722 100.121 176.863 90.4879 176.863 78.6046C176.863 66.7212 167.722 57.0879 156.446 57.0879C145.17 57.0879 136.029 66.7212 136.029 78.6046C136.029 90.4879 145.17 100.121 156.446 100.121Z" fill="#F2F2F2"/>
<path d="M325.08 50.6603H210.667V25.4297H325.08V50.6603ZM211.171 50.1291H324.576V25.9608H211.171V50.1291Z" fill="#3F3D56"/>
<path d="M316.763 30.4761H202.854V55.1755H316.763V30.4761Z" fill="#6327D8"/>
<path d="M130.847 6.90525C131.821 6.90525 132.611 6.0729 132.611 5.04613C132.611 4.01937 131.821 3.18701 130.847 3.18701C129.872 3.18701 129.083 4.01937 129.083 5.04613C129.083 6.0729 129.872 6.90525 130.847 6.90525Z" fill="#6327D8"/>
<path d="M136.894 6.90525C137.869 6.90525 138.659 6.0729 138.659 5.04613C138.659 4.01937 137.869 3.18701 136.894 3.18701C135.92 3.18701 135.13 4.01937 135.13 5.04613C135.13 6.0729 135.92 6.90525 136.894 6.90525Z" fill="#6327D8"/>
<path d="M142.943 6.90525C143.917 6.90525 144.707 6.0729 144.707 5.04613C144.707 4.01937 143.917 3.18701 142.943 3.18701C141.969 3.18701 141.179 4.01937 141.179 5.04613C141.179 6.0729 141.969 6.90525 142.943 6.90525Z" fill="#6327D8"/>
<path d="M338 145.541H125.806V0H338V145.541ZM126.31 145.01H337.496V0.531172H126.31V145.01Z" fill="#3F3D56"/>
<path d="M337.748 8.05664H126.058V8.58781H337.748V8.05664Z" fill="#3F3D56"/>
<path d="M131.351 6.37388C130.952 6.37388 130.562 6.24927 130.23 6.01581C129.899 5.78234 129.641 5.45051 129.488 5.06228C129.335 4.67404 129.295 4.24684 129.373 3.83469C129.451 3.42254 129.643 3.04396 129.925 2.74682C130.207 2.44968 130.566 2.24732 130.957 2.16534C131.348 2.08336 131.754 2.12543 132.122 2.28624C132.49 2.44706 132.805 2.71938 133.027 3.06879C133.248 3.41819 133.367 3.82897 133.367 4.2492C133.366 4.8125 133.153 5.35254 132.775 5.75085C132.398 6.14917 131.885 6.37323 131.351 6.37388ZM131.351 2.65568C131.051 2.65568 130.759 2.74914 130.511 2.92424C130.262 3.09934 130.068 3.34821 129.954 3.63939C129.839 3.93056 129.809 4.25096 129.868 4.56008C129.926 4.86919 130.07 5.15312 130.281 5.37598C130.493 5.59884 130.762 5.7506 131.056 5.81209C131.349 5.87358 131.653 5.84202 131.929 5.72141C132.205 5.6008 132.442 5.39656 132.608 5.1345C132.774 4.87245 132.863 4.56436 132.863 4.2492C132.862 3.82672 132.703 3.42169 132.419 3.12295C132.136 2.82422 131.751 2.65617 131.351 2.65568Z" fill="#3F3D56"/>
<path d="M137.398 6.37388C137 6.37388 136.61 6.24927 136.278 6.01581C135.947 5.78234 135.688 5.45051 135.536 5.06228C135.383 4.67404 135.343 4.24684 135.421 3.83469C135.499 3.42254 135.691 3.04396 135.973 2.74682C136.255 2.44968 136.614 2.24732 137.005 2.16534C137.396 2.08336 137.802 2.12543 138.17 2.28624C138.538 2.44706 138.853 2.71938 139.075 3.06879C139.296 3.41819 139.415 3.82897 139.415 4.2492C139.414 4.8125 139.201 5.35254 138.823 5.75085C138.445 6.14917 137.933 6.37323 137.398 6.37388ZM137.398 2.65568C137.099 2.65568 136.807 2.74914 136.558 2.92424C136.31 3.09934 136.116 3.34821 136.001 3.63939C135.887 3.93056 135.857 4.25096 135.915 4.56008C135.974 4.86919 136.118 5.15312 136.329 5.37598C136.541 5.59884 136.81 5.7506 137.103 5.81209C137.397 5.87358 137.701 5.84202 137.977 5.72141C138.253 5.6008 138.49 5.39656 138.656 5.1345C138.822 4.87245 138.91 4.56436 138.91 4.2492C138.91 3.82672 138.751 3.42169 138.467 3.12295C138.184 2.82422 137.799 2.65617 137.398 2.65568Z" fill="#3F3D56"/>
<path d="M143.447 6.37388C143.049 6.37388 142.659 6.24927 142.327 6.01581C141.996 5.78234 141.737 5.45052 141.585 5.06228C141.432 4.67405 141.392 4.24684 141.47 3.83469C141.548 3.42254 141.74 3.04396 142.022 2.74682C142.304 2.44968 142.663 2.24732 143.054 2.16534C143.445 2.08336 143.85 2.12543 144.219 2.28624C144.587 2.44705 144.902 2.71938 145.124 3.06878C145.345 3.41818 145.463 3.82897 145.463 4.24919C145.463 4.81249 145.25 5.35254 144.872 5.75085C144.494 6.14916 143.982 6.37322 143.447 6.37388ZM143.447 2.65568C143.148 2.65568 142.856 2.74914 142.607 2.92424C142.359 3.09933 142.165 3.34821 142.05 3.63938C141.936 3.93056 141.906 4.25096 141.964 4.56007C142.023 4.86918 142.167 5.15312 142.378 5.37598C142.59 5.59884 142.859 5.7506 143.152 5.81209C143.446 5.87358 143.75 5.84202 144.026 5.72141C144.302 5.6008 144.538 5.39655 144.704 5.1345C144.871 4.87245 144.959 4.56436 144.959 4.24919C144.959 3.82672 144.799 3.42169 144.516 3.12296C144.232 2.82422 143.848 2.65617 143.447 2.65568Z" fill="#3F3D56"/>
<path d="M192.772 8.32227H192.268V145.481H192.772V8.32227Z" fill="#3F3D56"/>
<path d="M253.382 75.7583H216.336V81.07H253.382V75.7583Z" fill="#F2F2F2"/>
<path d="M311.597 75.7583H274.551V81.07H311.597V75.7583Z" fill="#F2F2F2"/>
<path d="M255.65 78.6793H218.1V72.8364H255.65V78.6793ZM218.604 78.1481H255.146V73.3676H218.604V78.1481Z" fill="#3F3D56"/>
<path d="M253.382 116.924H216.336V122.236H253.382V116.924Z" fill="#F2F2F2"/>
<path d="M255.65 119.845H218.1V114.002H255.65V119.845ZM218.604 119.314H255.146V114.534H218.604V119.314Z" fill="#3F3D56"/>
<path d="M311.723 95.8101H216.462V101.122H311.723V95.8101Z" fill="#F2F2F2"/>
<path d="M313.991 99.2628H218.227V93.4199H313.991V99.2628ZM218.731 98.7316H313.487V93.9511H218.731V98.7316Z" fill="#3F3D56"/>
<path d="M313.865 78.6793H276.315V72.8364H313.865V78.6793ZM276.819 78.1481H313.361V73.3676H276.819V78.1481Z" fill="#3F3D56"/>
<path d="M159.901 94.4938C155.801 94.4938 151.793 93.2124 148.383 90.8118C144.974 88.4111 142.317 84.999 140.748 81.0068C139.179 77.0147 138.768 72.6218 139.568 68.3838C140.368 64.1457 142.343 60.2529 145.242 57.1974C148.141 54.1419 151.835 52.0611 155.857 51.2181C159.878 50.3751 164.046 50.8078 167.834 52.4614C171.623 54.115 174.86 56.9153 177.138 60.5081C179.416 64.101 180.632 68.325 180.632 72.6461C180.626 78.4384 178.44 83.9917 174.553 88.0875C170.667 92.1833 165.397 94.4872 159.901 94.4938ZM159.901 51.4604C155.925 51.4604 152.038 52.7029 148.732 55.0308C145.427 57.3587 142.85 60.6675 141.328 64.5387C139.807 68.4098 139.409 72.6696 140.184 76.7792C140.96 80.8888 142.875 84.6637 145.686 87.6266C148.498 90.5895 152.08 92.6072 155.979 93.4246C159.879 94.2421 163.921 93.8225 167.594 92.2191C171.267 90.6156 174.407 87.9001 176.616 84.4162C178.825 80.9322 180.004 76.8362 180.004 72.6461C179.998 67.0292 177.878 61.6443 174.109 57.6726C170.341 53.7009 165.231 51.4668 159.901 51.4604Z" fill="#3F3D56"/>
<path d="M323.865 246.435H234.973V247.097H323.865V246.435Z" fill="#3F3D56"/>
</g>
<defs>
<clipPath id="clip0">
<rect width="338" height="250" fill="white"/>
</clipPath>
</defs>
</svg>
